<svg id="_1828506" data-name="1828506" xmlns="http://www.w3.org/2000/svg" width="54.353" height="52.088" viewBox="0 0 54.353 52.088">
  <path id="Path_84" data-name="Path 84" d="M30.574,269.022a7.372,7.372,0,0,1,4.53-6.794v-.566a8.953,8.953,0,0,1,.885-3.839A10.7,10.7,0,0,0,30.007,256H10.757A10.77,10.77,0,0,0,0,266.757v7.927a1.7,1.7,0,0,0,1.7,1.7H30.574Zm0,0" transform="translate(0 -228.824)" fill="#607d8b"/>
  <path id="Path_85" data-name="Path 85" d="M107.979,11.324A11.324,11.324,0,1,1,96.656,0,11.323,11.323,0,0,1,107.979,11.324Zm0,0" transform="translate(-76.273)" fill="#607d8b"/>
  <path id="Path_86" data-name="Path 86" d="M336.419,341.332H323.963A3.968,3.968,0,0,0,320,345.3v7.926a3.968,3.968,0,0,0,3.963,3.964h12.456a3.968,3.968,0,0,0,3.963-3.964V345.3A3.968,3.968,0,0,0,336.419,341.332Zm0,0" transform="translate(-286.029 -305.097)" fill="#8ed473"/>
  <path id="Path_87" data-name="Path 87" d="M368.33,256a5.668,5.668,0,0,0-5.662,5.662v3.4h3.4v-3.4a2.265,2.265,0,1,1,4.529,0v3.4h3.4v-3.4A5.668,5.668,0,0,0,368.33,256Zm0,0" transform="translate(-324.168 -228.824)" fill="#607d8b"/>
</svg>
