<svg xmlns="http://www.w3.org/2000/svg" width="42.537" height="42.537" viewBox="0 0 42.537 42.537">
  <g id="_2965791" data-name="2965791" transform="translate(0 0)">
    <g id="Group_3" data-name="Group 3" transform="translate(0 5.36)">
      <path id="Path_12" data-name="Path 12" d="M39.166,101.7a3.31,3.31,0,0,1-3.372-3.244v-32.2a1.729,1.729,0,0,0-1.729-1.729H1.729A1.729,1.729,0,0,0,0,66.249v32.2A3.31,3.31,0,0,0,3.372,101.7Z" transform="translate(0 -64.52)" fill="#e7ecf6"/>
    </g>
    <g id="Group_4" data-name="Group 4" transform="translate(2.767 23.084)">
      <path id="Path_13" data-name="Path 13" d="M33.3,278.709V290.83a.856.856,0,0,0,.856.856H44.549a.856.856,0,0,0,.856-.856V278.709a.856.856,0,0,0-.856-.856H34.157A.856.856,0,0,0,33.3,278.709Z" transform="translate(-33.301 -277.853)" fill="#98df8b"/>
    </g>
    <g id="Group_5" data-name="Group 5" transform="translate(2.767 8.04)">
      <path id="Path_14" data-name="Path 14" d="M33.3,97.55V107.6a.77.77,0,0,0,.77.77h28.72a.77.77,0,0,0,.77-.77V97.55a.77.77,0,0,0-.77-.77H34.071a.77.77,0,0,0-.77.77Z" transform="translate(-33.301 -96.78)" fill="#c8e542"/>
    </g>
    <g id="Group_6" data-name="Group 6" transform="translate(3.545 0)">
      <path id="Path_15" data-name="Path 15" d="M79.974,0a1.686,1.686,0,0,0-1.686,1.686v30.39a1.729,1.729,0,0,1-1.729,1.729H74.916V7.09A1.729,1.729,0,0,0,73.187,5.36H42.667V1.686A1.686,1.686,0,0,1,44.353,0Z" transform="translate(-42.667 0)" fill="#d8e2f1"/>
    </g>
    <g id="Group_7" data-name="Group 7" transform="translate(35.794 0)">
      <path id="Path_16" data-name="Path 16" d="M430.829,39.293a3.374,3.374,0,0,0,6.744,0V1.726A1.712,1.712,0,0,0,435.948,0,1.686,1.686,0,0,0,434.2,1.686v30.39a1.729,1.729,0,0,1-1.729,1.729h-1.643Z" transform="translate(-430.829 0)" fill="#a2b9e2"/>
    </g>
    <g id="Group_9" data-name="Group 9" transform="translate(17.687 22.442)">
      <g id="Group_8" data-name="Group 8">
        <path id="Path_17" data-name="Path 17" d="M227.59,271.412H213.534a.642.642,0,1,1,0-1.284H227.59a.642.642,0,0,1,0,1.284Z" transform="translate(-212.892 -270.128)" fill="#5e54ac"/>
      </g>
    </g>
    <g id="Group_11" data-name="Group 11" transform="translate(17.687 25.209)">
      <g id="Group_10" data-name="Group 10">
        <path id="Path_18" data-name="Path 18" d="M227.59,304.713H213.534a.642.642,0,1,1,0-1.284H227.59a.642.642,0,0,1,0,1.284Z" transform="translate(-212.892 -303.429)" fill="#5e54ac"/>
      </g>
    </g>
    <g id="Group_13" data-name="Group 13" transform="translate(17.687 27.976)">
      <g id="Group_12" data-name="Group 12">
        <path id="Path_19" data-name="Path 19" d="M227.59,338.014H213.534a.642.642,0,1,1,0-1.284H227.59a.642.642,0,0,1,0,1.284Z" transform="translate(-212.892 -336.73)" fill="#5e54ac"/>
      </g>
    </g>
    <g id="Group_15" data-name="Group 15" transform="translate(17.687 30.742)">
      <g id="Group_14" data-name="Group 14">
        <path id="Path_20" data-name="Path 20" d="M227.59,371.314H213.534a.642.642,0,1,1,0-1.284H227.59a.642.642,0,0,1,0,1.284Z" transform="translate(-212.892 -370.03)" fill="#5e54ac"/>
      </g>
    </g>
    <g id="Group_17" data-name="Group 17" transform="translate(17.687 33.509)">
      <g id="Group_16" data-name="Group 16">
        <path id="Path_21" data-name="Path 21" d="M227.59,404.615H213.534a.642.642,0,1,1,0-1.284H227.59a.642.642,0,0,1,0,1.284Z" transform="translate(-212.892 -403.331)" fill="#5e54ac"/>
      </g>
    </g>
    <g id="Group_19" data-name="Group 19" transform="translate(17.687 36.276)">
      <g id="Group_18" data-name="Group 18">
        <path id="Path_22" data-name="Path 22" d="M227.59,437.916H213.534a.642.642,0,0,1,0-1.284H227.59a.642.642,0,0,1,0,1.284Z" transform="translate(-212.892 -436.632)" fill="#5e54ac"/>
      </g>
    </g>
    <g id="Group_21" data-name="Group 21" transform="translate(2.767 39.042)">
      <g id="Group_20" data-name="Group 20">
        <path id="Path_23" data-name="Path 23" d="M62.919,471.217H33.943a.642.642,0,1,1,0-1.284H62.919a.642.642,0,1,1,0,1.284Z" transform="translate(-33.301 -469.933)" fill="#5e54ac"/>
      </g>
    </g>
    <g id="Group_26" data-name="Group 26" transform="translate(4.658 10.165)">
      <g id="Group_23" data-name="Group 23" transform="translate(0 0)">
        <g id="Group_22" data-name="Group 22">
          <path id="Path_24" data-name="Path 24" d="M56.71,129.691a.642.642,0,0,1-.642-.642v-6.041a.642.642,0,0,1,1.17-.365l3.054,4.422L60.252,123a.642.642,0,0,1,.636-.648h.006a.642.642,0,0,1,.642.636l.057,5.848a.754.754,0,0,1-.51.753.724.724,0,0,1-.816-.3l-2.914-4.22v3.982a.642.642,0,0,1-.642.642Z" transform="translate(-56.068 -122.355)" fill="#4dc2ac"/>
        </g>
      </g>
      <path id="Path_25" data-name="Path 25" d="M142.975,128.409h-1.908v-1.742h1.72a.642.642,0,1,0,0-1.284h-1.72v-1.742h1.908a.642.642,0,1,0,0-1.284h-2.55a.642.642,0,0,0-.642.642v6.052a.642.642,0,0,0,.642.642h2.55a.642.642,0,0,0,0-1.284Z" transform="translate(-132.828 -122.357)" fill="#4dc2ac"/>
      <g id="Group_25" data-name="Group 25" transform="translate(21.263)">
        <g id="Group_24" data-name="Group 24">
          <path id="Path_26" data-name="Path 26" d="M314.755,129.69a3.526,3.526,0,0,1-2.585-1.108.642.642,0,0,1,.951-.862,2.223,2.223,0,0,0,1.633.686,1.136,1.136,0,0,0,1.17-.783c.067-.377-.249-.724-.867-.952-.935-.345-1.765-.714-1.8-.73a.633.633,0,0,1-.089-.048,1.81,1.81,0,0,1-.807-1.792,2.015,2.015,0,0,1,1.462-1.625,3.406,3.406,0,0,1,2.965.65.642.642,0,0,1-.823.985,2.132,2.132,0,0,0-1.771-.406.718.718,0,0,0-.562.578.532.532,0,0,0,.2.509c.2.087.905.393,1.667.674a2.171,2.171,0,0,1,1.686,2.382,2.382,2.382,0,0,1-2.434,1.841Z" transform="translate(-312.004 -122.354)" fill="#4dc2ac"/>
        </g>
      </g>
      <path id="Path_27" data-name="Path 27" d="M211.1,122.378a.642.642,0,0,0-.755.5l-.79,3.968-1.246-4.043a.642.642,0,0,0-1.243.063l-1.232,3.98-.787-3.979a.642.642,0,1,0-1.259.249l1.179,5.961a.637.637,0,0,0,.025.09.779.779,0,0,0,.734.518h.005a.779.779,0,0,0,.732-.528l.005-.017,1.228-3.968,1.223,3.969.009.026a.779.779,0,0,0,.734.518h.005a.779.779,0,0,0,.732-.528.64.64,0,0,0,.022-.081l1.184-5.948a.642.642,0,0,0-.5-.755Z" transform="translate(-191.507 -122.354)" fill="#4dc2ac"/>
    </g>
  </g>
</svg>
