<?xml version="1.0" encoding="utf-8"?>
<!-- Generator: Adobe Illustrator 25.2.3, SVG Export Plug-In . SVG Version: 6.00 Build 0)  -->
<svg version="1.1" id="_041-exam" xmlns="http://www.w3.org/2000/svg" xmlns:xlink="http://www.w3.org/1999/xlink" x="0px" y="0px"
	 viewBox="0 0 40.3 41.5" style="enable-background:new 0 0 40.3 41.5;" xml:space="preserve">
<style type="text/css">
	.st0{fill:#695D67;}
	.st1{fill:#544E55;}
	.st2{fill:#DFEBFA;}
	.st3{fill:#B1DBFC;}
	.st4{fill:#5CB3F8;}
	.st5{fill:#FF4756;}
	.st6{fill:#43CB8E;}
</style>
<g id="_041-exam_1_" transform="matrix(0.017, 1, -1, 0.017, 39.872, 0)">
	<path id="Path_29_1_" class="st0" d="M38.1,0.3H21.3c-1.5,0-2.7,1.2-2.7,2.7v34.4c0,1.5,1.2,2.7,2.7,2.7c0,0,0,0,0,0h16.8
		c1.5,0,2.7-1.2,2.7-2.7l0,0V3C40.8,1.5,39.6,0.3,38.1,0.3z"/>
	<path id="Path_30_1_" class="st1" d="M21.1,37.5V3c0-1.5,1.2-2.7,2.7-2.7h-2.6c-1.5,0-2.7,1.2-2.7,2.7v34.4c0,1.5,1.2,2.7,2.7,2.7
		c0,0,0,0,0,0h2.6C22.4,40.2,21.1,39,21.1,37.5L21.1,37.5z"/>
	<path id="Path_31_1_" class="st2" d="M21.1,7.4v26.4c0,0.1,0.1,0.2,0.2,0.2c0,0,0,0,0,0h16.8c0.1,0,0.2-0.1,0.2-0.2l0,0V7.4H21.1z"
		/>
	<path id="Path_32_1_" class="st3" d="M24.2,33.8V7.4h-3.1v26.4c0,0.1,0.1,0.2,0.2,0.2c0,0,0,0,0,0h3.1C24.3,34,24.2,33.9,24.2,33.8
		L24.2,33.8z"/>
	
		<ellipse id="Ellipse_4_1_" transform="matrix(-1.699501e-02 0.9999 -0.9999 -1.699501e-02 67.2008 7.9572)" class="st1" cx="29.7" cy="37" rx="1.2" ry="1.2"/>
	<path id="Path_33_1_" class="st4" d="M38.1,4.5H24v3.1l14.3,0V4.7C38.3,4.6,38.2,4.5,38.1,4.5C38.1,4.5,38.1,4.5,38.1,4.5z"/>
	<path id="Path_34_1_" class="st5" d="M24.2,4.5h-2.9c-0.1,0-0.2,0.1-0.2,0.2c0,0,0,0,0,0v2.9h3.1V4.5z"/>
	<g id="Group_28_1_" transform="translate(8.514 1.463)">
		<path id="Path_35_1_" class="st1" d="M23.2,1.5l-4,0c-0.3,0-0.6-0.3-0.6-0.6s0.3-0.6,0.6-0.6h4c0.3,0,0.6,0.3,0.6,0.6
			S23.5,1.5,23.2,1.5z"/>
	</g>
	<g id="Group_29_1_" transform="translate(4.787 11.824)">
		<path id="Path_36_1_" class="st6" d="M20.1,4.1l-1.2-1.2c-0.4-0.4-0.4-1.2,0-1.6s1.2-0.4,1.6,0l0.4,0.4l1-1c0.4-0.4,1.2-0.4,1.6,0
			s0.4,1.2,0,1.6l-1.8,1.8C21.3,4.5,20.6,4.5,20.1,4.1C20.1,4.1,20.1,4.1,20.1,4.1z"/>
	</g>
	<g id="Group_30_1_" transform="translate(4.787 18.165)">
		<path id="Path_37_1_" class="st6" d="M20.1,4.1l-1.2-1.2c-0.4-0.4-0.4-1.2,0-1.6s1.2-0.4,1.6,0l0.4,0.4l1-1c0.4-0.4,1.2-0.4,1.6,0
			s0.4,1.2,0,1.6l-1.8,1.8C21.3,4.5,20.6,4.5,20.1,4.1C20.1,4.1,20.1,4.1,20.1,4.1z"/>
	</g>
	<g id="Group_31_1_" transform="translate(4.787 24.505)">
		<path id="Path_38_1_" class="st6" d="M20.1,4.1l-1.2-1.2c-0.4-0.4-0.4-1.2,0-1.6s1.2-0.4,1.6,0l0.4,0.4l1-1c0.4-0.4,1.2-0.4,1.6,0
			s0.4,1.2,0,1.6l-1.8,1.8C21.3,4.5,20.6,4.5,20.1,4.1C20.1,4.1,20.1,4.1,20.1,4.1z"/>
	</g>
	<g id="Group_32_1_" transform="translate(11.884 12.087)">
		<path id="Path_39_1_" class="st3" d="M24,1.5h-4.9c-0.3,0-0.6-0.3-0.6-0.6s0.3-0.6,0.6-0.6H24c0.3,0,0.6,0.3,0.6,0.6
			S24.4,1.5,24,1.5z"/>
	</g>
	<g id="Group_33_1_" transform="translate(11.884 14.462)">
		<path id="Path_40_1_" class="st3" d="M24,1.5h-4.9c-0.3,0-0.6-0.3-0.6-0.6s0.3-0.6,0.6-0.6H24c0.3,0,0.6,0.3,0.6,0.6
			S24.4,1.5,24,1.5z"/>
	</g>
	<g id="Group_34_1_" transform="translate(11.884 18.427)">
		<path id="Path_41_1_" class="st3" d="M24,1.5h-4.9c-0.3,0-0.6-0.3-0.6-0.6s0.3-0.6,0.6-0.6H24c0.3,0,0.6,0.3,0.6,0.6
			S24.4,1.5,24,1.5z"/>
	</g>
	<g id="Group_35_1_" transform="translate(11.884 20.803)">
		<path id="Path_42_1_" class="st3" d="M24,1.5h-4.9c-0.3,0-0.6-0.3-0.6-0.6s0.3-0.6,0.6-0.6l4.9,0c0.3,0,0.6,0.3,0.6,0.6
			S24.4,1.5,24,1.5z"/>
	</g>
	<g id="Group_36_1_" transform="translate(11.884 24.768)">
		<path id="Path_43_1_" class="st3" d="M24,1.5h-4.9c-0.3,0-0.6-0.3-0.6-0.6s0.3-0.6,0.6-0.6H24c0.3,0,0.6,0.3,0.6,0.6
			S24.4,1.5,24,1.5z"/>
	</g>
	<g id="Group_37_1_" transform="translate(11.884 27.143)">
		<path id="Path_44_1_" class="st3" d="M24,1.5h-4.9c-0.3,0-0.6-0.3-0.6-0.6s0.3-0.6,0.6-0.6H24c0.3,0,0.6,0.3,0.6,0.6
			S24.4,1.5,24,1.5z"/>
	</g>
</g>
<path id="Path_29" class="st0" d="M19.5,0H2.7C1.2,0,0,1.3,0,2.8v35.8c0,1.5,1.2,2.8,2.7,2.8h16.8c1.5,0,2.8-1.3,2.7-2.8V2.8
	C22.3,1.3,21.1,0,19.5,0z"/>
<path id="Path_30" class="st1" d="M2.6,38.7V2.8C2.6,1.3,3.8,0,5.3,0H2.7C1.2,0,0,1.3,0,2.8v35.8c0,1.5,1.2,2.8,2.7,2.8h2.6
	C3.8,41.5,2.6,40.2,2.6,38.7z"/>
<path id="Path_31" class="st2" d="M2.5,7.1v28c0,0.1,0.1,0.3,0.2,0.3h16.8c0.1,0,0.2-0.1,0.2-0.3v-28H2.5z"/>
<path id="Path_32" class="st3" d="M5.6,35.1v-28H2.5v28c0,0.1,0.1,0.3,0.2,0.3h3.1C5.7,35.4,5.6,35.3,5.6,35.1z"/>
<ellipse id="Ellipse_4" class="st1" cx="11.1" cy="38.4" rx="1.2" ry="1.2"/>
<path id="Path_33" class="st4" d="M19.5,4.1H5.5v3.1h14.3V4.4C19.8,4.3,19.7,4.1,19.5,4.1C19.5,4.1,19.5,4.1,19.5,4.1z"/>
<path id="Path_34" class="st5" d="M5.6,4.1H2.7c-0.1,0-0.2,0.1-0.2,0.2v2.9h3.1L5.6,4.1z"/>
<g id="Group_28" transform="translate(8.514 1.463)">
	<path id="Path_35" class="st1" d="M4.6,1.2h-4C0.3,1.2,0,0.9,0,0.6S0.3,0,0.6,0l0,0h4C5,0,5.2,0.3,5.2,0.6S5,1.2,4.6,1.2z"/>
</g>
<g id="Group_29" transform="translate(4.787 12.373)">
	<path id="Path_36" class="st6" d="M1.6,3.8L0.3,2.5c-0.4-0.4-0.4-1.2,0-1.6s1.2-0.4,1.6,0l0.4,0.4l1-1c0.4-0.4,1.2-0.4,1.6,0
		s0.4,1.2,0,1.6L3.2,3.8C2.7,4.2,2,4.2,1.6,3.8C1.6,3.8,1.6,3.8,1.6,3.8z"/>
</g>
<g id="Group_30" transform="translate(4.787 19.007)">
	<path id="Path_37" class="st6" d="M1.6,3.8L0.3,2.5c-0.4-0.4-0.4-1.2,0-1.6s1.2-0.4,1.6,0l0.4,0.4l1-1c0.4-0.4,1.2-0.4,1.6,0
		s0.4,1.2,0,1.6L3.2,3.8C2.7,4.2,2,4.2,1.6,3.8C1.6,3.8,1.6,3.8,1.6,3.8z"/>
</g>
<g id="Group_31" transform="translate(4.787 25.642)">
	<path id="Path_38" class="st6" d="M1.6,3.8L0.3,2.5c-0.4-0.4-0.4-1.2,0-1.6s1.2-0.4,1.6,0l0.4,0.4l1-1c0.4-0.4,1.2-0.4,1.6,0
		s0.4,1.2,0,1.6L3.2,3.8C2.7,4.2,2,4.2,1.6,3.8C1.6,3.8,1.6,3.8,1.6,3.8z"/>
</g>
<g id="Group_32" transform="translate(11.884 12.606)">
	<path id="Path_39" class="st3" d="M5.5,1.2H0.6C0.3,1.2,0,0.9,0,0.6C0,0.3,0.3,0,0.6,0c0,0,0,0,0,0h4.9c0.3,0,0.6,0.3,0.6,0.6
		C6.1,0.9,5.8,1.2,5.5,1.2z"/>
</g>
<g id="Group_33" transform="translate(11.884 15.083)">
	<path id="Path_40" class="st3" d="M5.5,1.2H0.6C0.3,1.2,0,0.9,0,0.6C0,0.3,0.3,0,0.6,0c0,0,0,0,0,0h4.9c0.3,0,0.6,0.3,0.6,0.6
		C6.1,0.9,5.8,1.2,5.5,1.2z"/>
</g>
<g id="Group_34" transform="translate(11.884 19.218)">
	<path id="Path_41" class="st3" d="M5.5,1.2H0.6C0.3,1.2,0,0.9,0,0.6C0,0.3,0.3,0,0.6,0c0,0,0,0,0,0h4.9c0.3,0,0.6,0.3,0.6,0.6
		C6.1,0.9,5.8,1.2,5.5,1.2C5.5,1.2,5.5,1.2,5.5,1.2z"/>
</g>
<g id="Group_35" transform="translate(11.884 21.695)">
	<path id="Path_42" class="st3" d="M5.5,1.2H0.6C0.3,1.2,0,0.9,0,0.6S0.3,0,0.6,0h4.9c0.3,0,0.6,0.3,0.6,0.6S5.8,1.2,5.5,1.2z"/>
</g>
<g id="Group_36" transform="translate(11.884 25.831)">
	<path id="Path_43" class="st3" d="M5.5,1.2H0.6C0.3,1.2,0,0.9,0,0.6S0.3,0,0.6,0h4.9c0.3,0,0.6,0.3,0.6,0.6S5.8,1.2,5.5,1.2z"/>
</g>
<g id="Group_37" transform="translate(11.884 28.307)">
	<path id="Path_44" class="st3" d="M5.5,1.2H0.6C0.3,1.2,0,0.9,0,0.6S0.3,0,0.6,0h4.9c0.3,0,0.6,0.3,0.6,0.6S5.8,1.2,5.5,1.2z"/>
</g>
</svg>
