<svg xmlns="http://www.w3.org/2000/svg" width="21.471" height="25.924" viewBox="0 0 21.471 25.924">
  <g id="_049-copy" data-name="049-copy" transform="translate(-43.968)">
    <g id="Group_39" data-name="Group 39" transform="translate(52.121 5.469)">
      <g id="Group_38" data-name="Group 38" transform="translate(0)">
        <path id="Path_46" data-name="Path 46" d="M213.19,108.016H206a1.013,1.013,0,0,0,0,2.026h7.185a1.013,1.013,0,0,0,0-2.026Z" transform="translate(-204.992 -108.016)" fill="#b6b6b6" opacity="0.523"/>
      </g>
    </g>
    <g id="Group_41" data-name="Group 41" transform="translate(52.121 9.52)">
      <g id="Group_40" data-name="Group 40" transform="translate(0)">
        <path id="Path_47" data-name="Path 47" d="M213.19,188.027H206a1.013,1.013,0,0,0,0,2.026h7.185a1.013,1.013,0,0,0,0-2.026Z" transform="translate(-204.992 -188.027)" fill="#b6b6b6" opacity="0.523"/>
      </g>
    </g>
    <g id="Group_43" data-name="Group 43" transform="translate(52.121 13.571)">
      <g id="Group_42" data-name="Group 42" transform="translate(0)">
        <path id="Path_48" data-name="Path 48" d="M209.094,268.039H206a1.013,1.013,0,1,0,0,2.026h3.089a1.013,1.013,0,1,0,0-2.026Z" transform="translate(-204.992 -268.039)" fill="#b6b6b6" opacity="0.523"/>
      </g>
    </g>
    <g id="Group_45" data-name="Group 45" transform="translate(43.968)">
      <g id="Group_44" data-name="Group 44" transform="translate(0)">
        <path id="Path_49" data-name="Path 49" d="M64.427,13.774a1.013,1.013,0,0,0,1.013-1.013V4.051A4.056,4.056,0,0,0,61.388,0H52.07a4.056,4.056,0,0,0-4.051,4.047A4.056,4.056,0,0,0,43.968,8.1V21.873a4.056,4.056,0,0,0,4.051,4.051h9.824a4.056,4.056,0,0,0,4.051-4.051v-.031a4.058,4.058,0,0,0,3.545-4.02,1.013,1.013,0,0,0-2.026,0,2.028,2.028,0,0,1-2.025,2.026l-9.318,0h0a2.026,2.026,0,0,1-2.026-2.026V4.051A2.028,2.028,0,0,1,52.07,2.026h9.318a2.028,2.028,0,0,1,2.026,2.026v8.71A1.013,1.013,0,0,0,64.427,13.774Zm-12.356,8.1h0l7.8,0A2.028,2.028,0,0,1,57.843,23.9H48.019a2.028,2.028,0,0,1-2.026-2.026V8.1a2.028,2.028,0,0,1,2.026-2.026V17.824a4.051,4.051,0,0,0,4.051,4.051Z" transform="translate(-43.968)" fill="#b6b6b6" opacity="0.523"/>
      </g>
    </g>
  </g>
</svg>
