<svg xmlns="http://www.w3.org/2000/svg" width="24.607" height="24.607" viewBox="0 0 24.607 24.607">
  <g id="_160-chat" data-name="160-chat" transform="translate(0)">
    <g id="Group_46" data-name="Group 46" transform="translate(0)">
      <path id="Path_50" data-name="Path 50" d="M20.973,3.293A12.777,12.777,0,0,0,12.3,0,12.777,12.777,0,0,0,3.635,3.293,10.841,10.841,0,0,0,0,11.342a10.63,10.63,0,0,0,2.253,6.545L.07,23.286a.961.961,0,0,0,1.279,1.24L7.533,21.8a13.272,13.272,0,0,0,10.7-.517.961.961,0,1,0-.871-1.714,11.34,11.34,0,0,1-9.469.3.961.961,0,0,0-.765,0L2.74,21.812l1.507-3.729a.961.961,0,0,0-.16-.984,8.787,8.787,0,0,1-2.165-5.756c0-5.194,4.657-9.42,10.381-9.42s10.381,4.226,10.381,9.42a8.76,8.76,0,0,1-1.605,5.033.961.961,0,1,0,1.576,1.1,10.673,10.673,0,0,0,1.951-6.133A10.841,10.841,0,0,0,20.973,3.293Z" transform="translate(0)" fill="#b6b6b6" opacity="0.523"/>
    </g>
  </g>
</svg>
