<svg xmlns="http://www.w3.org/2000/svg" width="22.291" height="25.808" viewBox="0 0 22.291 25.808">
  <g id="_748134" data-name="748134" transform="translate(-39.883 2)" opacity="0.28">
    <g id="Group_9" data-name="Group 9" transform="translate(34.883 0)">
      <path id="Path_8" data-name="Path 8" d="M55.5,9.926,40.255.53a3.524,3.524,0,0,0-5.372,3V22.237a3.561,3.561,0,0,0,3.517,3.57h.016a3.537,3.537,0,0,0,1.827-.55,1.006,1.006,0,1,0-1.048-1.718,1.544,1.544,0,0,1-.784.255A1.564,1.564,0,0,1,36.9,22.237V3.531a1.512,1.512,0,0,1,2.3-1.288l15.243,9.4a1.512,1.512,0,0,1-.007,2.579L43.415,20.966a1.006,1.006,0,1,0,1.051,1.717l11.019-6.747a3.524,3.524,0,0,0,.013-6.01Z" transform="translate(-29.883 -2)" fill="#707070"/>
    </g>
  </g>
</svg>
