<svg xmlns="http://www.w3.org/2000/svg" width="36.5" height="42.537" viewBox="0 0 36.5 42.537">
  <g id="_4521064" data-name="4521064" transform="translate(-36.335 0)">
    <g id="Group_60" data-name="Group 60" transform="translate(36.335 0)">
      <g id="Group_53" data-name="Group 53">
        <g id="Group_48" data-name="Group 48">
          <path id="Path_52" data-name="Path 52" d="M58.8,42.537H39.016a2.681,2.681,0,0,1-2.681-2.681V2.681A2.681,2.681,0,0,1,39.016,0H58.8a2.681,2.681,0,0,1,2.681,2.681V39.856A2.681,2.681,0,0,1,58.8,42.537Z" transform="translate(-36.335 0)" fill="#c9d1de"/>
          <path id="Path_53" data-name="Path 53" d="M278.493,2.681V39.857a2.68,2.68,0,0,1-2.681,2.681h-2.8a2.681,2.681,0,0,0,2.681-2.681V2.681A2.681,2.681,0,0,0,273.008,0h2.8a2.68,2.68,0,0,1,2.681,2.681Z" transform="translate(-253.345 0)" fill="#adb3be"/>
          <path id="Path_54" data-name="Path 54" d="M83.9,27.782V64.064a.894.894,0,0,1-.894.894H64.116a.894.894,0,0,1-.894-.894V27.782a.894.894,0,0,1,.894-.894h2.458a1.072,1.072,0,0,1,1.072,1.072v.468A1.072,1.072,0,0,0,68.718,29.5h9.688a1.072,1.072,0,0,0,1.072-1.072V27.96a1.072,1.072,0,0,1,1.072-1.072h2.458A.894.894,0,0,1,83.9,27.782Z" transform="translate(-60.988 -24.654)" fill="#c8e542"/>
          <g id="Group_47" data-name="Group 47" transform="translate(6.961 2.234)">
            <path id="Path_55" data-name="Path 55" d="M136.073,156.958v16.457H121.051a.933.933,0,0,1-.932-.932V157.89a.932.932,0,0,1,.932-.932Z" transform="translate(-120.119 -146.152)" fill="#b2cc3a"/>
            <path id="Path_56" data-name="Path 56" d="M162.209,184.835v16.457H149.556a.933.933,0,0,1-.932-.932V185.767" transform="translate(-146.256 -171.713)" fill="#b2cc3a"/>
            <path id="Path_57" data-name="Path 57" d="M275.354,27.782V64.064a.894.894,0,0,1-.894.894h-2.44a.894.894,0,0,0,.894-.894V27.782a.894.894,0,0,0-.894-.894h2.44A.894.894,0,0,1,275.354,27.782Z" transform="translate(-259.4 -26.888)" fill="#b2cc3a"/>
          </g>
        </g>
        <g id="Group_52" data-name="Group 52" transform="translate(9.329 13.04)">
          <g id="Group_51" data-name="Group 51">
            <path id="Path_58" data-name="Path 58" d="M174.861,173.412H149.554a.932.932,0,0,1-.932-.932V157.887a.932.932,0,0,1,.932-.932h25.306a.932.932,0,0,1,.932.932V172.48A.932.932,0,0,1,174.861,173.412Z" transform="translate(-148.622 -156.955)" fill="#4dc2ac"/>
            <path id="Path_59" data-name="Path 59" d="M438.448,157.886v14.592a.933.933,0,0,1-.932.933h-2.44a.933.933,0,0,0,.932-.933V157.886a.933.933,0,0,0-.932-.933h2.44A.933.933,0,0,1,438.448,157.886Z" transform="translate(-411.277 -156.953)" fill="#4dc2ac"/>
            <path id="Path_60" data-name="Path 60" d="M203.869,191.182v5.875a.561.561,0,0,1-.564.559,4.089,4.089,0,0,0-1.1.16,2.926,2.926,0,0,0-1.986,1.868,3.986,3.986,0,0,0-.224,1.272.563.563,0,0,1-.559.569H182.851a.559.559,0,0,1-.559-.559v-5.875a.558.558,0,0,1,.556-.559,3.467,3.467,0,0,0,2.358-.924,3.385,3.385,0,0,0,.8-1.319,3.862,3.862,0,0,0,.156-1.075.556.556,0,0,1,.559-.551h16.588A.559.559,0,0,1,203.869,191.182Z" transform="translate(-179.495 -187.826)" fill="#17998c"/>
            <path id="Path_61" data-name="Path 61" d="M372.125,191.18v5.875a.559.559,0,0,1-.563.559,4.086,4.086,0,0,0-1.1.161,2.922,2.922,0,0,0-1.987,1.868,3.977,3.977,0,0,0-.223,1.271.563.563,0,0,1-.56.569h-1.9a.563.563,0,0,0,.559-.569,4,4,0,0,1,.223-1.271,2.924,2.924,0,0,1,1.987-1.868,4.088,4.088,0,0,1,1.1-.161.559.559,0,0,0,.563-.559V191.18a.559.559,0,0,0-.559-.56h1.9A.559.559,0,0,1,372.125,191.18Z" transform="translate(-347.751 -187.823)" fill="#138b80"/>
            <g id="Group_49" data-name="Group 49" transform="translate(22.564 11.851)">
              <path id="Path_62" data-name="Path 62" d="M422.026,302.044h-1.168a.642.642,0,0,1,0-1.284h.526v-.526a.642.642,0,0,1,1.284,0V301.4A.642.642,0,0,1,422.026,302.044Z" transform="translate(-420.216 -299.592)" fill="#17998c"/>
            </g>
            <g id="Group_50" data-name="Group 50" transform="translate(2.155 2.156)">
              <path id="Path_63" data-name="Path 63" d="M175.208,185.35a.642.642,0,0,1-.642-.642V183.54a.642.642,0,0,1,.642-.642h1.168a.642.642,0,1,1,0,1.284h-.526v.526A.642.642,0,0,1,175.208,185.35Z" transform="translate(-174.566 -182.898)" fill="#17998c"/>
            </g>
          </g>
          <circle id="Ellipse_5" data-name="Ellipse 5" cx="5.431" cy="5.431" r="5.431" transform="translate(8.154 2.797)" fill="#fcc16d"/>
          <path id="Path_64" data-name="Path 64" d="M301.47,196.05a5.436,5.436,0,0,1-6.889,5.234,5.279,5.279,0,0,0,0-10.467,5.435,5.435,0,0,1,6.891,5.233Z" transform="translate(-282.453 -187.822)" fill="#fca62f"/>
        </g>
      </g>
      <g id="Group_54" data-name="Group 54" transform="translate(20.498 19.233)">
        <path id="Path_65" data-name="Path 65" d="M284.957,235.573a.642.642,0,0,1-.477-.213l-1.254-1.393a.642.642,0,0,1,.954-.859l.776.863,2.03-2.256a.642.642,0,1,1,.954.859l-2.507,2.787A.641.641,0,0,1,284.957,235.573Z" transform="translate(-283.062 -231.503)" fill="#ed9224"/>
      </g>
      <g id="Group_58" data-name="Group 58" transform="translate(10.678 7.408)">
        <path id="Path_68" data-name="Path 68" d="M166.907,90.454H165.5a.642.642,0,0,1,0-1.284h1.406a.642.642,0,0,1,0,1.284Z" transform="translate(-164.859 -89.17)" fill="#b2cc3a"/>
      </g>
      <g id="Group_59" data-name="Group 59" transform="translate(10.678 9.523)">
        <path id="Path_69" data-name="Path 69" d="M168.421,115.9H165.5a.642.642,0,0,1,0-1.284h2.92a.642.642,0,1,1,0,1.284Z" transform="translate(-164.859 -114.62)" fill="#b2cc3a"/>
      </g>
    </g>
    <g id="Group_61" data-name="Group 61" transform="translate(41.89 32.182)">
      <path id="Path_70" data-name="Path 70" d="M110.774,392.305h-6.725a.856.856,0,0,1-.856-.856v-3.236a.856.856,0,0,1,.856-.856h6.725a.856.856,0,0,1,.856.856v3.236A.856.856,0,0,1,110.774,392.305Z" transform="translate(-103.193 -387.357)" fill="#f1faff"/>
      <path id="Path_71" data-name="Path 71" d="M167.909,388.214v3.236a.856.856,0,0,1-.856.856h-2.482a.856.856,0,0,0,.856-.856v-3.236a.856.856,0,0,0-.856-.856h2.482A.856.856,0,0,1,167.909,388.214Z" transform="translate(-159.472 -387.358)" fill="#c9f0fd"/>
    </g>
    <g id="Group_63" data-name="Group 63" transform="translate(40.72 6.49)">
      <g id="Group_62" data-name="Group 62">
        <path id="Path_72" data-name="Path 72" d="M91.8,83.484a2.681,2.681,0,1,1,1.866-4.606.642.642,0,0,1,.034.886l-1.425,1.61a.642.642,0,0,1-.961-.851l.927-1.047a1.4,1.4,0,1,0,.813,1.946.642.642,0,1,1,1.15.57,2.667,2.667,0,0,1-2.4,1.493Z" transform="translate(-89.115 -78.121)" fill="#b2cc3a"/>
      </g>
    </g>
  </g>
</svg>
