<svg xmlns="http://www.w3.org/2000/svg" width="62.7" height="44.732" viewBox="0 0 62.7 44.732">
  <g id="_018-video" data-name="018-video" transform="translate(0 -73.362)">
    <path id="Path_1" data-name="Path 1" d="M0,77.569v36.318a4.219,4.219,0,0,0,4.207,4.207H58.493a4.219,4.219,0,0,0,4.207-4.207V77.569a4.219,4.219,0,0,0-4.207-4.207H4.207A4.219,4.219,0,0,0,0,77.569Z" fill="#e7ecf6"/>
    <path id="Path_2" data-name="Path 2" d="M4.354,113.887V77.569a4.219,4.219,0,0,1,4.207-4.207H4.207A4.219,4.219,0,0,0,0,77.569v36.318a4.219,4.219,0,0,0,4.207,4.207H8.561a4.219,4.219,0,0,1-4.207-4.207Z" transform="translate(0)" fill="#c9d1de"/>
    <path id="Path_3" data-name="Path 3" d="M33.494,106.961v36.318a.121.121,0,0,0,.105.105H84.194a.121.121,0,0,0,.105-.105V106.961a.121.121,0,0,0-.105-.105H33.6A.121.121,0,0,0,33.494,106.961Z" transform="translate(-29.392 -29.392)" fill="#c8e542"/>
    <path id="Path_4" data-name="Path 4" d="M37.848,143.279V106.961a.121.121,0,0,1,.105-.105H33.6a.121.121,0,0,0-.105.105v36.318a.121.121,0,0,0,.105.105h4.354A.121.121,0,0,1,37.848,143.279Z" transform="translate(-29.392 -29.392)" fill="#abc725"/>
    <path id="Path_5" data-name="Path 5" d="M180.656,160.782a8.269,8.269,0,1,0,8.269,8.269A8.293,8.293,0,0,0,180.656,160.782Z" transform="translate(-151.276 -76.714)" fill="#dfebfa"/>
    <path id="Path_6" data-name="Path 6" d="M178.317,169.05a8.3,8.3,0,0,1,5.3-7.713,8.191,8.191,0,0,0-2.965-.555,8.269,8.269,0,1,0,0,16.537,8.191,8.191,0,0,0,2.965-.555A8.3,8.3,0,0,1,178.317,169.05Z" transform="translate(-151.277 -76.714)" fill="#b1dbfc"/>
    <path id="Path_7" data-name="Path 7" d="M225.141,201.079l-4.7-2.831a.863.863,0,0,0-1.309.74v5.662a.863.863,0,0,0,1.309.74l4.7-2.831A.863.863,0,0,0,225.141,201.079Z" transform="translate(-192.297 -109.483)" fill="#ffac65"/>
    <path id="Path_8" data-name="Path 8" d="M103.778,336.943H75.813a1.766,1.766,0,0,0,0,3.533h27.965Z" transform="translate(-64.979 -231.303)" fill="#dfebfa"/>
    <path id="Path_9" data-name="Path 9" d="M325.953,336.943h-9.125v3.532h9.125a1.766,1.766,0,1,0,0-3.532Z" transform="translate(-278.029 -231.303)" fill="#ffac65"/>
    <g id="Group_1" data-name="Group 1" transform="translate(37.853 103.748)">
      <path id="Path_10" data-name="Path 10" d="M310.047,328.829a.946.946,0,0,1-.946-.946v-5.446a.946.946,0,0,1,1.892,0v5.446A.946.946,0,0,1,310.047,328.829Z" transform="translate(-309.101 -321.491)" fill="#ff7f87"/>
    </g>
    <g id="Group_2" data-name="Group 2" transform="translate(57.441 93.967)">
      <path id="Path_11" data-name="Path 11" d="M470,245.143a.946.946,0,0,1-.946-.946v-1.629a.946.946,0,1,1,1.892,0V244.2A.946.946,0,0,1,470,245.143Z" transform="translate(-469.057 -241.621)" fill="#544e55"/>
    </g>
  </g>
</svg>
